<mxfile modified="2024-05-10T21:17:25.222Z" host="app.diagrams.net" agent="Mozilla/5.0 (Macintosh; Intel Mac OS X 10_15_7) AppleWebKit/537.36 (KHTML, like Gecko) Chrome/124.0.0.0 Safari/537.36" etag="42TMZhKIMEWivj8vagsd" version="24.3.1" type="device">
  <diagram id="Ht1M8jgEwFfnCIfOTk4-" name="Page-1">
    <mxGraphModel dx="1710" dy="942" grid="1" gridSize="10" guides="1" tooltips="1" connect="1" arrows="1" fold="1" page="1" pageScale="1" pageWidth="1169" pageHeight="827" math="0" shadow="0">
      <root>
        <mxCell id="0" />
        <mxCell id="1" parent="0" />
        <mxCell id="k1ZdVovzNBgfZtHvy0G2-38" value="" style="edgeStyle=orthogonalEdgeStyle;rounded=0;orthogonalLoop=1;jettySize=auto;html=1;" edge="1" parent="1" source="k1ZdVovzNBgfZtHvy0G2-5">
          <mxGeometry relative="1" as="geometry">
            <mxPoint x="1000" y="130" as="targetPoint" />
          </mxGeometry>
        </mxCell>
        <mxCell id="k1ZdVovzNBgfZtHvy0G2-39" style="edgeStyle=orthogonalEdgeStyle;rounded=0;orthogonalLoop=1;jettySize=auto;html=1;" edge="1" parent="1">
          <mxGeometry relative="1" as="geometry">
            <mxPoint x="865" y="430" as="targetPoint" />
            <mxPoint x="865" y="210" as="sourcePoint" />
          </mxGeometry>
        </mxCell>
        <mxCell id="k1ZdVovzNBgfZtHvy0G2-5" value="Lambda" style="outlineConnect=0;dashed=0;verticalLabelPosition=bottom;verticalAlign=top;align=center;html=1;shape=mxgraph.aws3.lambda_function;fillColor=#F58534;gradientColor=none;fontSize=21;" vertex="1" parent="1">
          <mxGeometry x="820" y="90" width="90" height="80" as="geometry" />
        </mxCell>
        <mxCell id="k1ZdVovzNBgfZtHvy0G2-44" style="edgeStyle=orthogonalEdgeStyle;rounded=0;orthogonalLoop=1;jettySize=auto;html=1;" edge="1" parent="1">
          <mxGeometry relative="1" as="geometry">
            <mxPoint x="75" y="310" as="sourcePoint" />
            <mxPoint x="250" y="150.00000000000023" as="targetPoint" />
            <Array as="points">
              <mxPoint x="75" y="150" />
            </Array>
          </mxGeometry>
        </mxCell>
        <mxCell id="k1ZdVovzNBgfZtHvy0G2-14" value="" style="sketch=0;pointerEvents=1;shadow=0;dashed=0;html=1;strokeColor=none;labelPosition=center;verticalLabelPosition=bottom;verticalAlign=top;align=center;fillColor=#515151;shape=mxgraph.mscae.system_center.admin_console" vertex="1" parent="1">
          <mxGeometry x="50" y="320" width="50" height="36" as="geometry" />
        </mxCell>
        <mxCell id="k1ZdVovzNBgfZtHvy0G2-33" value="" style="edgeStyle=orthogonalEdgeStyle;rounded=0;orthogonalLoop=1;jettySize=auto;html=1;" edge="1" parent="1" source="k1ZdVovzNBgfZtHvy0G2-16">
          <mxGeometry relative="1" as="geometry">
            <mxPoint x="480" y="150" as="targetPoint" />
          </mxGeometry>
        </mxCell>
        <mxCell id="k1ZdVovzNBgfZtHvy0G2-16" value="Amazon S3" style="sketch=0;outlineConnect=0;fontColor=#232F3E;gradientColor=none;strokeColor=#ffffff;fillColor=#232F3E;dashed=0;verticalLabelPosition=middle;verticalAlign=bottom;align=center;html=1;whiteSpace=wrap;fontSize=13;fontStyle=1;spacing=3;shape=mxgraph.aws4.productIcon;prIcon=mxgraph.aws4.s3;" vertex="1" parent="1">
          <mxGeometry x="250" y="100" width="80" height="100" as="geometry" />
        </mxCell>
        <mxCell id="k1ZdVovzNBgfZtHvy0G2-36" value="" style="edgeStyle=orthogonalEdgeStyle;rounded=0;orthogonalLoop=1;jettySize=auto;html=1;" edge="1" parent="1">
          <mxGeometry relative="1" as="geometry">
            <mxPoint x="580" y="138.17" as="sourcePoint" />
            <mxPoint x="812" y="138.17" as="targetPoint" />
          </mxGeometry>
        </mxCell>
        <mxCell id="k1ZdVovzNBgfZtHvy0G2-17" value="SQS" style="sketch=0;points=[[0,0,0],[0.25,0,0],[0.5,0,0],[0.75,0,0],[1,0,0],[0,1,0],[0.25,1,0],[0.5,1,0],[0.75,1,0],[1,1,0],[0,0.25,0],[0,0.5,0],[0,0.75,0],[1,0.25,0],[1,0.5,0],[1,0.75,0]];outlineConnect=0;fontColor=#232F3E;fillColor=#E7157B;strokeColor=#ffffff;dashed=0;verticalLabelPosition=bottom;verticalAlign=top;align=center;html=1;fontSize=21;fontStyle=0;aspect=fixed;shape=mxgraph.aws4.resourceIcon;resIcon=mxgraph.aws4.sqs;" vertex="1" parent="1">
          <mxGeometry x="490" y="100" width="78" height="78" as="geometry" />
        </mxCell>
        <mxCell id="k1ZdVovzNBgfZtHvy0G2-18" value="Rekognition&lt;div style=&quot;font-size: 21px;&quot;&gt;&lt;br style=&quot;font-size: 21px;&quot;&gt;&lt;/div&gt;" style="sketch=0;points=[[0,0,0],[0.25,0,0],[0.5,0,0],[0.75,0,0],[1,0,0],[0,1,0],[0.25,1,0],[0.5,1,0],[0.75,1,0],[1,1,0],[0,0.25,0],[0,0.5,0],[0,0.75,0],[1,0.25,0],[1,0.5,0],[1,0.75,0]];outlineConnect=0;fontColor=#232F3E;fillColor=#01A88D;strokeColor=#ffffff;dashed=0;verticalLabelPosition=bottom;verticalAlign=top;align=center;html=1;fontSize=21;fontStyle=0;aspect=fixed;shape=mxgraph.aws4.resourceIcon;resIcon=mxgraph.aws4.rekognition_2;" vertex="1" parent="1">
          <mxGeometry x="1010" y="90" width="78" height="78" as="geometry" />
        </mxCell>
        <mxCell id="k1ZdVovzNBgfZtHvy0G2-19" value="DB" style="strokeWidth=2;html=1;shape=mxgraph.flowchart.database;whiteSpace=wrap;fontSize=19;" vertex="1" parent="1">
          <mxGeometry x="830" y="440" width="89" height="150" as="geometry" />
        </mxCell>
        <mxCell id="k1ZdVovzNBgfZtHvy0G2-48" style="edgeStyle=orthogonalEdgeStyle;rounded=0;orthogonalLoop=1;jettySize=auto;html=1;exitX=1;exitY=0.5;exitDx=0;exitDy=0;exitPerimeter=0;" edge="1" parent="1" source="k1ZdVovzNBgfZtHvy0G2-21" target="k1ZdVovzNBgfZtHvy0G2-22">
          <mxGeometry relative="1" as="geometry" />
        </mxCell>
        <mxCell id="k1ZdVovzNBgfZtHvy0G2-50" style="edgeStyle=orthogonalEdgeStyle;rounded=0;orthogonalLoop=1;jettySize=auto;html=1;entryX=0;entryY=0.75;entryDx=0;entryDy=0;" edge="1" parent="1" source="k1ZdVovzNBgfZtHvy0G2-21" target="k1ZdVovzNBgfZtHvy0G2-23">
          <mxGeometry relative="1" as="geometry" />
        </mxCell>
        <mxCell id="k1ZdVovzNBgfZtHvy0G2-21" value="Front end" style="sketch=0;pointerEvents=1;shadow=0;dashed=0;html=1;strokeColor=none;labelPosition=center;verticalLabelPosition=bottom;verticalAlign=top;align=center;fillColor=#505050;shape=mxgraph.mscae.intune.device_os;fontSize=21;" vertex="1" parent="1">
          <mxGeometry x="170" y="480" width="94.5" height="70" as="geometry" />
        </mxCell>
        <mxCell id="k1ZdVovzNBgfZtHvy0G2-22" value="Parking Management Service" style="rounded=0;whiteSpace=wrap;html=1;fontSize=17;" vertex="1" parent="1">
          <mxGeometry x="444.5" y="360" width="210" height="120" as="geometry" />
        </mxCell>
        <mxCell id="k1ZdVovzNBgfZtHvy0G2-40" style="edgeStyle=orthogonalEdgeStyle;rounded=0;orthogonalLoop=1;jettySize=auto;html=1;" edge="1" parent="1" source="k1ZdVovzNBgfZtHvy0G2-23" target="k1ZdVovzNBgfZtHvy0G2-19">
          <mxGeometry relative="1" as="geometry">
            <Array as="points">
              <mxPoint x="742" y="630" />
              <mxPoint x="742" y="540" />
            </Array>
          </mxGeometry>
        </mxCell>
        <mxCell id="k1ZdVovzNBgfZtHvy0G2-23" value="Pricing Service" style="rounded=0;whiteSpace=wrap;html=1;fontSize=17;" vertex="1" parent="1">
          <mxGeometry x="444.5" y="570" width="210" height="120" as="geometry" />
        </mxCell>
        <mxCell id="k1ZdVovzNBgfZtHvy0G2-43" style="edgeStyle=orthogonalEdgeStyle;rounded=0;orthogonalLoop=1;jettySize=auto;html=1;entryX=0;entryY=0.5;entryDx=0;entryDy=0;entryPerimeter=0;" edge="1" parent="1" source="k1ZdVovzNBgfZtHvy0G2-22" target="k1ZdVovzNBgfZtHvy0G2-19">
          <mxGeometry relative="1" as="geometry" />
        </mxCell>
      </root>
    </mxGraphModel>
  </diagram>
</mxfile>
